Coordinates
version=1
nRows=49
nColumns=12
inDegrees=yes

Units are S.I. units (second, meters, Newtons, ...)
Angles are in degrees

endheader
time	SC_y	SC_z	SC_x	AC_y	AC_z	AC_x	GH_y	GH_z	GH_yy	EL_x	PS_y
       0.0               -57.5          38.92          79.07           43.0         -18.24         -2.985         -111.1          83.32         -159.8          33.33          34.31
   0.01476              -57.49          38.92          79.07           43.0         -18.24         -2.986         -111.1          83.32         -159.7          33.34          34.31
   0.02952              -57.48          38.91          79.06           43.0         -18.24         -2.988         -111.1          83.32         -159.7          33.35          34.31
   0.04428              -57.48          38.91          79.05           43.0         -18.23          -2.99         -111.0          83.32         -159.6          33.37          34.32
   0.05904              -57.47           38.9          79.04           43.0         -18.23         -2.992         -111.0          83.32         -159.6          33.38          34.32
    0.0738              -57.46          38.89          79.04           43.0         -18.22         -2.994         -110.9          83.32         -159.6           33.4          34.32
   0.08856              -57.46          38.89          79.03          42.99         -18.22         -2.997         -110.9          83.32         -159.5          33.42          34.33
    0.1033              -57.45          38.88          79.02          42.99         -18.22         -2.999         -110.8          83.31         -159.5          33.44          34.33
    0.1181              -57.44          38.87          79.01          42.99         -18.21         -3.002         -110.8          83.31         -159.4          33.46          34.34
    0.1328              -57.43          38.86           79.0          42.99         -18.21         -3.005         -110.7          83.31         -159.4          33.48          34.34
    0.1476              -57.42          38.85          78.99          42.99          -18.2         -3.008         -110.7          83.31         -159.3           33.5          34.35
    0.1624              -57.41          38.84          78.98          42.99          -18.2         -3.011         -110.6          83.31         -159.2          33.52          34.36
    0.1771               -57.4          38.83          78.97          42.98         -18.19         -3.015         -110.5           83.3         -159.2          33.55          34.36
    0.1919              -57.39          38.82          78.95          42.98         -18.18         -3.018         -110.5           83.3         -159.1          33.58          34.37
    0.2066              -57.37           38.8          78.94          42.98         -18.17         -3.023         -110.4           83.3         -159.0          33.61          34.38
    0.2214              -57.36          38.79          78.92          42.98         -18.17         -3.027         -110.3          83.29         -158.9          33.64          34.39
    0.2362              -57.34          38.77           78.9          42.97         -18.16         -3.032         -110.2          83.29         -158.8          33.68           34.4
    0.2509              -57.33          38.76          78.89          42.97         -18.15         -3.037         -110.1          83.29         -158.7          33.72          34.41
    0.2657              -57.31          38.74          78.87          42.97         -18.14         -3.043         -110.0          83.28         -158.6          33.76          34.42
    0.2804              -57.29          38.72          78.84          42.96         -18.13          -3.05         -109.8          83.28         -158.5          33.81          34.43
    0.2952              -57.26           38.7          78.82          42.96         -18.11         -3.057         -109.7          83.27         -158.3          33.86          34.44
      0.31              -57.24          38.67          78.79          42.95          -18.1         -3.064         -109.5          83.27         -158.2          33.92          34.46
    0.3247              -57.21          38.65          78.76          42.95         -18.08         -3.073         -109.4          83.26         -158.0          33.98          34.47
    0.3395              -57.18          38.62          78.73          42.94         -18.07         -3.082         -109.2          83.25         -157.8          34.05          34.49
    0.3542              -57.15          38.59          78.69          42.94         -18.05         -3.093         -109.0          83.25         -157.6          34.13          34.51
     0.369              -57.11          38.55          78.65          42.93         -18.03         -3.104         -108.7          83.24         -157.4          34.22          34.53
    0.3838              -57.07          38.51           78.6          42.92          -18.0         -3.117         -108.4          83.23         -157.1          34.32          34.56
    0.3985              -57.02          38.46          78.55          42.92         -17.98         -3.132         -108.1          83.22         -156.8          34.43          34.58
    0.4133              -56.96          38.41          78.49          42.91         -17.95         -3.149         -107.8          83.21         -156.5          34.55          34.62
     0.428               -56.9          38.35          78.43           42.9         -17.91         -3.168         -107.4          83.19         -156.1          34.69          34.65
    0.4428              -56.83          38.28          78.35          42.88         -17.88         -3.189         -107.0          83.18         -155.7          34.85          34.69
    0.4576              -56.75           38.2          78.26          42.87         -17.83         -3.214         -106.5          83.16         -155.2          35.04          34.74
    0.4723              -56.66          38.12          78.16          42.85         -17.78         -3.243         -105.9          83.14         -154.6          35.25          34.79
    0.4871              -56.55          38.01          78.04          42.83         -17.72         -3.276         -105.2          83.12         -153.9           35.5          34.86
    0.5018              -56.43          37.89          77.91          42.81         -17.65         -3.315         -104.4          83.09         -153.1          35.79          34.93
    0.5166              -56.28          37.75          77.74          42.78         -17.57         -3.361         -103.5          83.06         -152.2          36.13          35.01
    0.5314               -56.1          37.58          77.55          42.75         -17.47         -3.415         -102.4          83.02         -151.1          36.54          35.12
    0.5461              -55.89          37.37          77.32          42.71         -17.36          -3.48         -101.1          82.97         -149.8          37.02          35.24
    0.5609              -55.64          37.12          77.04          42.67         -17.21         -3.559         -99.48          82.92         -148.3          37.61          35.39
    0.5756              -55.32          36.82           76.7          42.61         -17.04         -3.656         -97.52          82.85         -146.3          38.33          35.57
    0.5904              -54.94          36.45          76.28          42.54         -16.83         -3.775         -95.11          82.76         -143.9          39.22           35.8
    0.6052              -54.46          35.99          75.76          42.46         -16.56         -3.923          -92.1          82.66         -141.0          40.32          36.08
    0.6199              -53.85           35.4           75.1          42.35         -16.23          -4.11          -88.3          82.52         -137.2          41.72          36.43
    0.6347              -53.08          34.66          74.26          42.21          -15.8         -4.348         -83.48          82.36         -132.5          43.49          36.88
    0.6494               -52.1           33.7          73.18          42.04         -15.26         -4.652          -77.3          82.14         -126.4          45.76          37.45
    0.6642              -50.83          32.48          71.81          41.81         -14.56         -5.043         -69.38          81.86         -118.5          48.67          38.19
     0.679              -49.22          30.92          70.05          41.52         -13.67         -5.542         -59.25          81.51         -108.6          52.39          39.13
    0.6937              -47.19          28.96          67.83          41.16         -12.54         -6.169         -46.52          81.06          -96.0          57.06          40.31
    0.7085              -44.71          26.56          65.13          40.72         -11.18         -6.933         -31.01          80.52         -80.69          62.76          41.75
